<svg width="120" height="150" viewBox="0 0 120 150" fill="none" xmlns="http://www.w3.org/2000/svg">
  <!-- Raiz esquerda -->
  <path
    d="M38 105 C36 118 34 132 35 142 C36 148 40 150 44 148 C48 146 49 134 50 120 L55 105 Z"
    fill="white" fill-opacity="0.85"
  />
  <!-- Raiz direita -->
  <path
    d="M82 105 C84 118 86 132 85 142 C84 148 80 150 76 148 C72 146 71 134 70 120 L65 105 Z"
    fill="white" fill-opacity="0.85"
  />

  <!-- Corpo principal -->
  <path
    d="M22 55
       C20 40 24 24 32 16
       C38 10 46 7 55 8
       C58 8 61 9 63 10
       C65 9 68 8 71 8
       C80 7 88 10 94 16
       C102 24 106 40 104 55
       C102 68 98 80 95 90
       C92 100 88 108 60 108
       C32 108 28 100 25 90
       C22 80 18 68 22 55 Z"
    fill="white" fill-opacity="0.9"
  />

  <!-- Cúspide esquerda -->
  <path
    d="M32 30
       C30 20 36 8 46 6
       C51 5 55 8 56 14
       C57 20 55 30 50 36
       C45 42 36 42 32 36 Z"
    fill="white" fill-opacity="0.9"
  />

  <!-- Cúspide direita -->
  <path
    d="M88 30
       C90 20 84 8 74 6
       C69 5 65 8 64 14
       C63 20 65 30 70 36
       C75 42 84 42 88 36 Z"
    fill="white" fill-opacity="0.9"
  />

  <!-- Vale entre cúspides -->
  <path
    d="M56 14 C58 20 60 26 60 30 C60 26 62 20 64 14"
    fill="white" fill-opacity="0.6"
  />

  <!-- Sulco vertical suave -->
  <path d="M60 10 C60 22 60 38 60 52" stroke="white" stroke-opacity="0.2" stroke-width="2" stroke-linecap="round"/>

  <!-- Linha de detalhe horizontal -->
  <path d="M32 65 C42 70 51 72 60 72 C69 72 78 70 88 65" stroke="white" stroke-opacity="0.15" stroke-width="2" stroke-linecap="round" fill="none"/>

  <!-- Brilho sutil -->
  <ellipse cx="44" cy="32" rx="10" ry="16" fill="white" fill-opacity="0.25"/>
  <ellipse cx="40" cy="27" rx="4" ry="7" fill="white" fill-opacity="0.3"/>
</svg>
